<svg width="75" height="75" viewBox="0 0 75 75" fill="none" xmlns="http://www.w3.org/2000/svg">
<path d="M61.7229 13.7675C66.2213 13.7675 69.881 10.6794 69.881 6.88374C69.881 3.08804 66.2213 0 61.7229 0C57.2244 0 53.5647 3.08804 53.5647 6.88374C53.5647 10.6794 57.2244 13.7675 61.7229 13.7675ZM61.7229 2.19727C64.7854 2.19727 67.277 4.29976 67.277 6.88374C67.277 9.46772 64.7852 11.5702 61.7229 11.5702C58.6605 11.5702 56.1688 9.46772 56.1688 6.88374C56.1688 4.29976 58.6605 2.19727 61.7229 2.19727Z" fill="#0A75ED"/>
<path d="M74.8216 69.6014C74.2058 68.0097 72.1807 67.1419 70.2948 67.6618L68.4975 68.1569C63.8269 69.4428 58.6185 69.1264 54.2081 67.2883C53.5632 67.0196 52.7825 67.243 52.4641 67.7868C52.1457 68.3308 52.4101 68.9897 53.0549 69.2584C58.0701 71.3483 63.993 71.7083 69.3051 70.2457L71.1028 69.7504C71.6193 69.608 72.1762 69.845 72.3456 70.2832C72.5144 70.7195 72.2335 71.1893 71.7142 71.3323L69.9169 71.8273C63.676 73.5458 56.8186 72.9726 51.1103 70.2742L42.4368 66.175L43.7177 64.8733L47.6774 66.7448C48.3042 67.041 49.0982 66.8525 49.4498 66.3231C49.801 65.7937 49.5774 65.1241 48.95 64.8276L42.2021 61.6385C42.5681 61.3533 42.8863 61.0211 43.1406 60.6472C44.4408 58.7381 43.7597 56.3409 41.6657 55.1199C42.8691 53.8969 49.9945 46.656 51.3664 45.2619C53.1399 43.4594 52.8132 40.7971 50.6744 39.3346L38.1327 29.0052C37.9651 28.8675 37.9256 28.6334 38.0594 28.4592C38.4922 27.8964 38.9389 27.3604 39.3969 26.8473L45.0171 29.4647V30.4041C45.0171 31.918 45.9897 33.318 47.5547 34.0576L61.2627 40.5362C63.2717 41.4861 65.7138 41.1283 67.2357 39.8118L69.72 40.9687C70.3504 41.262 71.142 41.0685 71.4891 40.5378C71.8364 40.0066 71.608 39.3384 70.9783 39.0451L68.505 37.8933C69.026 36.1365 68.142 34.1881 66.1132 33.2295L63.1505 31.8291L54.9428 27.9499V23.3057C54.9428 22.6989 54.36 22.2071 53.6408 22.2071C52.9215 22.2071 52.3387 22.6989 52.3387 23.3057V27.9908C52.3387 28.7598 52.8328 29.471 53.6281 29.8469L60.6502 33.1658L58.0245 36.4872L48.8274 32.1405C48.0835 31.7891 47.6214 31.1238 47.6214 30.4041C47.6214 28.0501 47.6214 16.5835 47.6214 14.2946C47.6214 13.204 48.6331 12.2514 49.9386 12.2321C51.2431 12.212 52.3387 13.101 52.3387 14.2206V18.1786C52.3387 18.7855 52.9215 19.2773 53.6408 19.2773C54.36 19.2773 54.9428 18.7855 54.9428 18.1786V14.2206C54.9428 13.5336 54.748 12.8745 54.3828 12.2848C53.9762 11.0701 53.0125 10.0094 51.7118 9.35715C50.339 8.66867 48.7278 8.47971 47.1749 8.826C45.5265 9.19353 43.8844 9.69333 42.2945 10.3116C38.5137 11.7818 33.5816 14.4996 28.974 19.4834L17.598 14.1859L18.6211 12.6176C18.9678 12.086 18.7382 11.4179 18.1084 11.1252C17.4784 10.8327 16.6868 11.0265 16.3397 11.5578L15.3179 13.124L12.2753 11.7071C11.6456 11.4142 10.8538 11.6067 10.5063 12.138C10.1589 12.6692 10.3873 13.3374 11.017 13.6307L14.0622 15.0488L12.9647 16.7312C12.618 17.2628 12.8475 17.9309 13.4773 18.2236C14.1063 18.5158 14.8988 18.3229 15.246 17.791L16.3422 16.1107L27.4211 21.2702C26.0895 22.8954 24.9009 24.6081 23.8811 26.3041C22.3622 28.8288 23.1926 31.7529 25.9472 33.5802L35.2012 39.7208L28.6301 46.412C28.6301 46.412 28.6297 46.4124 28.6294 46.4127L24.1853 50.9379C23.6875 51.4437 23.3487 52.0291 23.1752 52.6461L5.34378 44.2185C3.61607 43.4016 1.429 43.9169 0.456983 45.3813C-0.509995 46.8385 0.108038 48.6882 1.83506 49.5044L22.7364 59.3826L49.8385 72.1913C56.1717 75.185 63.7829 75.8279 70.7255 73.916L72.5227 73.421C74.4088 72.902 75.4372 71.1934 74.8216 69.6014ZM62.9291 34.243L64.841 35.1467C65.9783 35.684 66.3837 36.8956 65.7466 37.8555C65.1074 38.8181 63.6692 39.1554 62.5359 38.6194L60.3035 37.5643L62.9291 34.243ZM40.1269 65.0832L25.3736 58.1106L26.6546 56.8089C34.1814 60.3661 33.7524 60.1634 41.4079 63.7816L40.1269 65.0832ZM31.799 56.7217C31.6306 56.1194 31.811 55.4647 32.278 54.9898L35.9513 51.2568L40.1729 53.1977L39.4033 53.9798C38.5118 54.8854 38.8047 56.2501 40.0128 56.8354C41.1433 57.3836 41.5327 58.5986 40.8831 59.5527C40.6038 59.9632 40.1654 60.2712 39.6465 60.4304L31.799 56.7217ZM37.2488 41.0798L40.4749 43.2204L35.3149 48.4641L31.6463 46.7846L37.2488 41.0798ZM41.0817 25.1223C42.319 23.9705 43.6333 22.9838 45.0175 22.1658V26.9551L41.0817 25.1223ZM43.3844 12.3076C44.3807 11.9202 45.3985 11.584 46.4244 11.3028C45.5541 12.0575 45.0175 13.0874 45.0175 14.221V14.295V19.5526C42.7561 20.6787 40.6595 22.1803 38.7467 24.0351L31.2859 20.5606C35.505 16.0909 39.9578 13.6399 43.3844 12.3076ZM37.0964 25.7761C36.7251 26.2015 36.3617 26.6413 36.0069 27.0965L27.595 25.1405C28.2849 24.1384 28.9931 23.2058 29.7134 22.3378L37.0964 25.7761ZM26.2031 27.2986C26.2392 27.2386 26.2762 27.181 26.3124 27.1214L35.4423 29.2442C35.5708 29.7552 35.8897 30.2282 36.3142 30.5778C36.3914 30.6414 48.9218 40.9663 49.0066 41.0225C50.0503 41.7151 50.2114 42.9967 49.3632 43.8583L41.8683 51.4749L37.6467 49.534L42.7294 44.3687C43.5285 43.5571 43.3773 42.3508 42.3936 41.6982C40.6222 40.5227 28.8806 32.7313 27.5567 31.8528C25.8069 30.6919 25.2628 28.8618 26.2031 27.2986ZM26.1899 52.3408L29.9526 48.5093L33.6191 50.1876L30.2744 53.5865C29.7363 54.1333 29.3672 54.8199 29.2189 55.5024C28.0391 54.9449 26.8435 54.3797 25.6604 53.8206C25.5972 53.2934 25.7847 52.7526 26.1899 52.3408ZM2.72877 46.4549C2.99526 46.0538 3.59558 45.9103 4.07091 46.1356L24.3441 55.717L23.0633 57.0187L3.10758 47.5874C2.63312 47.3631 2.46333 46.8549 2.72877 46.4549Z" fill="#0A75ED"/>
</svg>
