<svg width="75" height="75" viewBox="0 0 75 75" fill="none" xmlns="http://www.w3.org/2000/svg">
<path d="M47.9279 59.1471C43.5603 59.1471 40.0015 62.7059 40.0015 67.0735C40.0015 71.4412 43.5603 75 47.9279 75C52.3117 75 55.8543 71.4412 55.8543 67.0735C55.8543 62.7059 52.2955 59.1471 47.9279 59.1471ZM47.9279 72.5735C44.9029 72.5735 42.4279 70.0985 42.4279 67.0735C42.4279 64.0485 44.9029 61.5736 47.9279 61.5736C50.9691 61.5736 53.4279 64.0485 53.4279 67.0735C53.4279 70.0985 50.9529 72.5735 47.9279 72.5735Z" fill="#0A75ED"/>
<path d="M74.2307 5.4252L68.0028 0.281099C67.7601 0.0708057 67.4366 -0.0262548 67.1131 0.00609804C66.7896 0.0384509 66.4984 0.200213 66.2881 0.459036L63.716 3.67815C63.2955 4.19579 63.3763 4.95608 63.894 5.37667L64.4925 5.87813L14.4265 60.3118C14.4103 60.3279 14.3942 60.3441 14.3942 60.3603C13.7471 61.1368 12.8089 61.2662 12.0648 60.6676C11.5148 60.0853 11.4824 59.3088 11.9839 58.6779C12 58.6618 12 58.6456 12.0162 58.6294L12.2103 58.3706L12.825 57.6265C14.3133 55.9765 14.7662 53.9221 14.103 51.9647C13.375 49.8456 11.4015 48.1795 9.20153 47.8074C7.11477 47.4515 5.09272 48.2765 3.66919 50.0883C3.66919 50.1044 3.65302 50.1044 3.65302 50.1206L3.00596 50.978C2.98978 50.9941 2.98978 51.0103 2.97361 51.0265C0.919203 54.0515 -0.132264 57.5132 0.0133239 60.7485C0.158912 64.2265 1.63097 67.2838 4.25154 69.5647L4.41331 69.7103C4.42948 69.7264 4.44566 69.7426 4.46184 69.7588C7.00153 71.797 10.0912 72.8808 13.2456 72.8808C13.6177 72.8808 13.9736 72.8647 14.3456 72.8323C17.9044 72.5411 21.1721 70.8911 23.55 68.1735C23.5662 68.1573 23.5824 68.1411 23.5824 68.125L69.6043 10.084L70.1057 10.5046C70.3322 10.6825 70.591 10.7796 70.8822 10.7796C70.9307 10.7796 70.9631 10.7796 71.0116 10.7796C71.3351 10.7472 71.6263 10.5855 71.8366 10.3266L74.4086 7.10754C74.8131 6.58989 74.7484 5.84578 74.2307 5.4252ZM21.6897 66.572C17.6133 71.1985 10.8677 71.7485 5.96624 67.85L5.83683 67.7206L5.82066 67.7044C1.59861 64.0323 1.24273 57.8691 4.94713 52.3853L5.56183 51.5603C6.67801 50.153 7.92359 50.0397 8.78094 50.1853C10.1236 50.4118 11.353 51.4633 11.8059 52.7412C12.0809 53.5338 12.1618 54.7471 11.0133 56.0088C10.9971 56.025 10.9809 56.0412 10.9809 56.0574L10.3339 56.85C10.3177 56.8662 10.3015 56.8824 10.2853 56.9147L10.0912 57.1735C8.82947 58.775 8.95888 60.9588 10.4148 62.4147C10.4471 62.447 10.4633 62.4632 10.4956 62.4956C12.275 63.9676 14.75 63.725 16.2544 61.9294L50.1764 25.0148L52.894 27.231L21.6897 66.572ZM54.4146 25.3384L51.8264 23.2354L66.3043 7.46342L67.6954 8.5796L54.4146 25.3384ZM70.7042 7.85166L66.3528 4.24432L67.4043 2.91785L71.7557 6.52519L70.7042 7.85166Z" fill="#0A75ED"/>
</svg>
