<svg width="75" height="75" viewBox="0 0 75 75" fill="none" xmlns="http://www.w3.org/2000/svg">
<path d="M41.8944 63.2802H33.1057C29.875 63.2802 27.2466 65.909 27.2466 69.1401C27.2466 72.3713 29.875 75 33.1057 75H41.8944C45.1252 75 47.7536 72.3713 47.7536 69.1401C47.7536 65.909 45.1252 63.2802 41.8944 63.2802ZM41.8944 72.0701H33.1057C31.4904 72.0701 30.1762 70.7557 30.1762 69.1401C30.1762 67.5245 31.4904 66.2102 33.1057 66.2102H41.8944C43.5098 66.2102 44.824 67.5245 44.824 69.1401C44.824 70.7557 43.5097 72.0701 41.8944 72.0701Z" fill="#0A75ED"/>
<path d="M29.5847 40.5785L26.1264 44.3754L6.82386 41.2991C3.25286 40.7029 0.00147074 43.4616 0.00147074 47.079V50.6814C0.00147074 56.3359 4.60119 60.9362 10.255 60.9362H24.3155C25.9616 60.9362 27.5415 60.238 28.6502 59.0205L37.5076 49.2935L46.3498 59.0205C47.4583 60.238 49.0388 60.9362 50.686 60.9362H64.745C70.3988 60.9362 74.9985 56.3359 74.9985 50.6814V47.079C74.9985 43.4428 71.7254 40.707 68.1867 41.2973L48.8745 44.3753L45.4331 40.5898L48.6499 37.0571C49.1947 36.459 49.1513 35.5324 48.5531 34.9877C47.955 34.443 47.0287 34.4862 46.484 35.0845C14.8327 69.8434 31.5188 51.5191 26.4844 57.0477C25.9295 57.6569 25.1391 58.0063 24.3155 58.0063H11.7198V45.0464L26.4461 47.3934C26.9333 47.4708 27.4271 47.2982 27.7596 46.9331C28.6051 46.0049 53.4801 18.6938 53.5089 18.6621L57.6585 22.8123L55.3562 25.3407C54.8114 25.9388 54.8548 26.8654 55.453 27.4101C56.0511 27.9549 56.9775 27.9114 57.5221 27.3133C59.2588 25.4062 71.7631 11.6747 73.4732 9.79655C75.6521 7.40044 75.4791 3.69478 73.0808 1.51739C70.6922 -0.649896 66.9804 -0.474539 64.8061 1.90883L37.5107 31.8765L10.193 1.90781C8.01956 -0.474246 4.30853 -0.649457 1.92063 1.51724C-0.475024 3.69068 -0.656511 7.39575 1.52792 9.79787C1.54316 9.81457 29.2011 40.1577 29.5847 40.5785ZM68.6583 44.1892C70.4429 43.8909 72.0691 45.2708 72.0691 47.0792V50.6815C72.0691 54.2189 69.5489 57.1784 66.2099 57.859V44.5795L68.6583 44.1892ZM47.2396 46.9321C47.572 47.2976 48.0661 47.4709 48.554 47.3933L63.2804 45.0462V58.0063H50.6861C49.8616 58.0063 49.0706 57.6569 48.5166 57.0486L39.4892 47.1177L43.452 42.7657L47.2396 46.9321ZM8.79033 57.8589C5.45135 57.1783 2.93119 54.2189 2.93119 50.6814V47.079C2.93119 45.2742 4.54978 43.8899 6.35234 44.1908L8.79033 44.5793V57.8589ZM66.971 3.88289C68.0592 2.69025 69.9172 2.60264 71.1121 3.68717C72.3093 4.77403 72.3954 6.62723 71.3068 7.82455L59.6333 20.6437L55.4839 16.4937L66.971 3.88289ZM31.566 38.4031L17.3481 22.8057L21.4963 18.6569L35.5294 34.0517L31.566 38.4031ZM3.88901 3.68731C5.08428 2.60279 6.94148 2.69069 8.02864 3.8823L19.5205 16.4893L15.3722 20.6381L3.69405 7.82514C2.60308 6.62561 2.69214 4.77301 3.88901 3.68731Z" fill="#0A75ED"/>
<path d="M52.0015 32.6623C52.8105 32.6623 53.4663 32.0064 53.4663 31.1973C53.4663 30.3882 52.8105 29.7322 52.0015 29.7322C51.1925 29.7322 50.5366 30.3882 50.5366 31.1973C50.5366 32.0064 51.1925 32.6623 52.0015 32.6623Z" fill="#0A75ED"/>
</svg>
