<svg width="40" height="22" viewBox="0 0 40 22" fill="none" xmlns="http://www.w3.org/2000/svg">
<g clip-path="url(#clip0_330_2)">
<path d="M2.19565 0H37.7971C39.0072 0 39.9928 0.779167 39.9928 1.73594V20.2583C39.9928 21.2151 39.0072 21.9943 37.7971 21.9943H2.19565C0.985507 22 0 21.2208 0 20.2641V1.73594C0 0.779167 0.985507 0 2.19565 0Z" fill="#B22234"/>
<path d="M0.0144928 1.56409H39.9927C40 1.62138 40.0072 1.67867 40.0072 1.74169V3.42607H0V1.73596C0 1.67867 0.00724638 1.62138 0.0144928 1.56409ZM40 4.96721V6.82346H0V4.96721H40ZM40 8.37034V10.2266H0V8.37034H40V8.37034ZM40 11.7735V13.6297H0V11.7735H40V11.7735ZM40 15.1766V17.0328H0V15.1766H40V15.1766ZM40 18.5797V20.2584C40 20.3156 39.9928 20.3787 39.9855 20.436H0.0144928C0.00724638 20.3844 0 20.3214 0 20.2641V18.5854H40V18.5797Z" fill="white"/>
<path d="M15.0725 0V11.8479H0V1.73594C0 0.779167 0.985507 0 2.19565 0H15.0725Z" fill="#3C3B6E"/>
<path d="M0.89135 1.63855L1.39135 2.87032L0.0725098 2.10834H1.71019L0.384104 2.87032L0.89135 1.63855Z" fill="white"/>
<path d="M0.89135 4.02185L1.39135 5.25362L0.0725098 4.49164H1.71019L0.384104 5.25362L0.89135 4.02185Z" fill="white"/>
<path d="M0.89135 6.40515L1.39135 7.63692L0.0725098 6.87494H1.71019L0.384104 7.63692L0.89135 6.40515Z" fill="white"/>
<path d="M0.89135 8.78857L1.39135 10.0203L0.0725098 9.25837H1.71019L0.384104 10.0203L0.89135 8.78857Z" fill="white"/>
<path d="M2.65942 0.446899L3.16666 1.67867L1.84058 0.916691H3.4855L2.15217 1.67867L2.65942 0.446899Z" fill="white"/>
<path d="M2.65942 2.8302L3.16666 4.06197L1.84058 3.29999H3.4855L2.15217 4.06197L2.65942 2.8302Z" fill="white"/>
<path d="M2.65942 5.2135L3.16666 6.44527L1.84058 5.68329H3.4855L2.15217 6.44527L2.65942 5.2135Z" fill="white"/>
<path d="M2.65942 7.59692L3.16666 8.82869L1.84058 8.06672H3.4855L2.15217 8.82869L2.65942 7.59692Z" fill="white"/>
<path d="M2.65942 9.98022L3.16666 11.212L1.84058 10.45H3.4855L2.15217 11.212L2.65942 9.98022Z" fill="white"/>
<path d="M4.43481 1.63855L4.94205 2.87032L3.61597 2.10834H5.25365L3.92756 2.87032L4.43481 1.63855Z" fill="white"/>
<path d="M4.43481 4.02185L4.94205 5.25362L3.61597 4.49164H5.25365L3.92756 5.25362L4.43481 4.02185Z" fill="white"/>
<path d="M4.43481 6.40515L4.94205 7.63692L3.61597 6.87494H5.25365L3.92756 7.63692L4.43481 6.40515Z" fill="white"/>
<path d="M4.43481 8.78857L4.94205 10.0203L3.61597 9.25837H5.25365L3.92756 10.0203L4.43481 8.78857Z" fill="white"/>
<path d="M6.2102 0.446899L6.7102 1.67867L5.39136 0.916691H7.02904L5.70295 1.67867L6.2102 0.446899Z" fill="white"/>
<path d="M6.2102 2.8302L6.7102 4.06197L5.39136 3.29999H7.02904L5.70295 4.06197L6.2102 2.8302Z" fill="white"/>
<path d="M6.2102 5.2135L6.7102 6.44527L5.39136 5.68329H7.02904L5.70295 6.44527L6.2102 5.2135Z" fill="white"/>
<path d="M6.2102 7.59692L6.7102 8.82869L5.39136 8.06672H7.02904L5.70295 8.82869L6.2102 7.59692Z" fill="white"/>
<path d="M6.2102 9.98022L6.7102 11.212L5.39136 10.45H7.02904L5.70295 11.212L6.2102 9.98022Z" fill="white"/>
<path d="M7.97826 1.63855L8.48551 2.87032L7.15942 2.10834H8.79711L7.47102 2.87032L7.97826 1.63855Z" fill="white"/>
<path d="M7.97826 4.02185L8.48551 5.25362L7.15942 4.49164H8.79711L7.47102 5.25362L7.97826 4.02185Z" fill="white"/>
<path d="M7.97826 6.40515L8.48551 7.63692L7.15942 6.87494H8.79711L7.47102 7.63692L7.97826 6.40515Z" fill="white"/>
<path d="M7.97826 8.78857L8.48551 10.0203L7.15942 9.25837H8.79711L7.47102 10.0203L7.97826 8.78857Z" fill="white"/>
<path d="M9.75366 0.446899L10.2609 1.67867L8.93481 0.916691H10.5725L9.24641 1.67867L9.75366 0.446899Z" fill="white"/>
<path d="M9.75366 2.8302L10.2609 4.06197L8.93481 3.29999H10.5725L9.24641 4.06197L9.75366 2.8302Z" fill="white"/>
<path d="M9.75366 5.2135L10.2609 6.44527L8.93481 5.68329H10.5725L9.24641 6.44527L9.75366 5.2135Z" fill="white"/>
<path d="M9.75366 7.59692L10.2609 8.82869L8.93481 8.06672H10.5725L9.24641 8.82869L9.75366 7.59692Z" fill="white"/>
<path d="M9.75366 9.98022L10.2609 11.212L8.93481 10.45H10.5725L9.24641 11.212L9.75366 9.98022Z" fill="white"/>
<path d="M11.5217 1.63855L12.029 2.87032L10.7029 2.10834H12.3406L11.0217 2.87032L11.5217 1.63855Z" fill="white"/>
<path d="M11.5217 4.02185L12.029 5.25362L10.7029 4.49164H12.3406L11.0217 5.25362L11.5217 4.02185Z" fill="white"/>
<path d="M11.5217 6.40515L12.029 7.63692L10.7029 6.87494H12.3406L11.0217 7.63692L11.5217 6.40515Z" fill="white"/>
<path d="M11.5217 8.78857L12.029 10.0203L10.7029 9.25837H12.3406L11.0217 10.0203L11.5217 8.78857Z" fill="white"/>
<path d="M13.2971 0.446899L13.8044 1.67867L12.4783 0.916691H14.116L12.7899 1.67867L13.2971 0.446899Z" fill="white"/>
<path d="M13.2971 2.8302L13.8044 4.06197L12.4783 3.29999H14.116L12.7899 4.06197L13.2971 2.8302Z" fill="white"/>
<path d="M13.2971 5.2135L13.8044 6.44527L12.4783 5.68329H14.116L12.7899 6.44527L13.2971 5.2135Z" fill="white"/>
<path d="M13.2971 7.59692L13.8044 8.82869L12.4783 8.06672H14.116L12.7899 8.82869L13.2971 7.59692Z" fill="white"/>
<path d="M13.2971 9.98022L13.8044 11.212L12.4783 10.45H14.116L12.7899 11.212L13.2971 9.98022Z" fill="white"/>
</g>
<defs>
<clipPath id="clip0_330_2">
<rect width="40" height="22" fill="white"/>
</clipPath>
</defs>
</svg>
