<svg width="75" height="67" viewBox="0 0 75 67" fill="none" xmlns="http://www.w3.org/2000/svg">
<path d="M72.6417 52.37L72.2441 51.9567C72.491 51.6061 72.7471 51.2203 72.9983 50.8033C74.5811 48.1749 75.1973 45.7038 74.8296 43.4583C74.5426 41.7063 73.477 39.2388 70.0291 37.4321C68.1837 36.4653 66.3388 35.6173 64.5545 34.7972C61.6046 33.4412 58.8183 32.1607 56.1215 30.4181C51.117 27.185 47.2535 22.2971 45.2428 16.6547C43.9139 12.9253 42.2088 7.46667 41.6319 2.6409C41.5169 1.67806 40.7834 0.905061 39.8282 0.739493C39.654 0.709363 35.4985 0.00979098 30.1139 0.864547C22.9061 2.0089 16.876 5.41286 12.6752 10.7083C12.3795 11.0812 12.2129 11.543 12.2007 12.0189C12.1993 12.0774 12.0227 17.9431 9.50806 23.5957C7.18001 28.8288 6.70261 34.6248 8.16391 39.9157C8.37351 40.6742 8.61498 41.3857 8.8806 42.0389C9.08171 42.8068 10.3671 47.9769 9.66222 52.0497C9.55179 52.6874 9.72877 53.3415 10.1456 53.8367C10.5625 54.332 11.1768 54.6178 11.824 54.6178H15.3913V62.1706H2.19393C0.982296 62.1706 0 63.1529 0 64.3645C0 65.5762 0.982296 66.5585 2.19393 66.5585H66.6597C66.7694 66.5585 66.8786 66.5566 66.9875 66.5529C70.2867 66.4415 73.1128 64.4593 74.3627 61.3798C75.6339 58.248 74.9745 54.7956 72.6417 52.37V52.37ZM13.5174 25.3794C15.856 20.1227 16.4166 14.8542 16.5485 12.9034C20.0392 8.76724 24.7835 6.18395 30.6615 5.22096C33.5195 4.75263 36.0053 4.79403 37.5214 4.89933C37.6457 5.66487 37.7911 6.43655 37.9524 7.2072L34.8199 10.3396C33.9631 11.1962 33.9631 12.5854 34.8199 13.4422C35.2483 13.8706 35.8098 14.0849 36.3711 14.0849C36.9326 14.0849 37.4941 13.8706 37.9224 13.4422L39.1917 12.1729C39.4985 13.2464 39.8177 14.2841 40.1348 15.2629L37.745 17.6527C36.8882 18.5093 36.8882 19.8985 37.745 20.7553C38.1734 21.1837 38.7349 21.398 39.2962 21.398C39.8577 21.398 40.4192 21.1837 40.8475 20.7553L41.7735 19.8293C42.307 21.0892 42.9212 22.3115 43.6102 23.4882L42.1327 24.9658C41.2759 25.8224 41.2759 27.2116 42.1327 28.0684C42.5611 28.4968 43.1226 28.7111 43.684 28.7111C44.2455 28.7111 44.807 28.4968 45.2352 28.0684L46.1293 27.1743C48.2671 29.8758 50.8382 32.2291 53.7401 34.1039C56.7003 36.0165 59.7614 37.4233 62.7216 38.784C64.4549 39.5807 66.2474 40.4046 67.9921 41.3188C69.491 42.1042 70.3107 43.0337 70.4978 44.1603C70.8428 46.2374 69.1889 48.8306 68.0644 50.2301H52.4903C47.2257 49.7614 37.3874 46.6392 34.8075 45.4435C31.492 43.9073 17.0994 40.5156 12.6126 39.4773C12.5361 39.2426 12.4631 38.9989 12.3937 38.7478C11.2024 34.434 11.6014 29.6864 13.5174 25.3794V25.3794ZM13.8184 44.2639C16.9822 45.0088 20.5038 45.8666 23.6797 46.6848C23.2465 47.319 22.8314 48.0174 22.4369 48.7812C22.1657 49.3064 21.9365 49.8011 21.7503 50.2301H14.2418C14.318 48.0866 14.0913 45.9594 13.8184 44.2639V44.2639ZM19.7793 54.6179H23.2437C24.1894 54.6179 25.0285 54.0121 25.3262 53.1144C25.6545 52.124 26.7562 49.5175 28.2927 47.9181C30.497 48.5361 32.1943 49.0689 32.9625 49.4249C35.8588 50.767 44.5228 53.5047 50.374 54.3883V62.1708H19.7793V54.6179ZM70.2971 59.7295C69.6989 61.2032 68.4062 62.1147 66.839 62.1677C66.7795 62.1697 66.7197 62.1708 66.6595 62.1708H54.762V54.6179H68.7158L69.479 55.4115C70.8118 56.7974 70.7756 58.5508 70.2971 59.7295V59.7295Z" fill="#0A75ED"/>
</svg>
