<svg width="13" height="22" viewBox="0 0 13 22" fill="none" xmlns="http://www.w3.org/2000/svg">
<path d="M0.764646 12.7756H3.33182V21.3116C3.33182 21.6911 3.67336 21.9991 4.09646 21.9991L8.18171 22C8.60482 22 8.94636 21.6911 8.94636 21.3125V12.7765H11.38C11.7654 12.7765 12.0906 12.518 12.1385 12.1743L12.6462 8.50758C12.7033 8.09875 12.3475 7.73483 11.8877 7.73483H8.94636C9.06156 5.46975 8.50286 4.79967 10.1412 4.79967C11.2505 4.6805 13 5.18558 13 4.11217V0.83325C13 0.4895 12.7176 0.198917 12.3393 0.152167C12.0192 0.11275 10.754 0 9.18493 0C2.03804 0 3.50922 7.12433 3.33284 7.73392H0.764646C0.342561 7.73392 0 8.04192 0 8.42142V12.0881C0 12.4676 0.342561 12.7756 0.764646 12.7756V12.7756ZM1.52929 9.10983H4.09646C4.51855 9.10983 4.86111 8.80183 4.86111 8.42233V5.53392C4.86111 2.89117 6.43628 1.37592 9.18391 1.37592C10.0791 1.37592 10.9028 1.41533 11.4697 1.45567V3.42558C11.0598 3.6135 7.41605 2.61525 7.41605 5.89783V8.42325C7.41605 8.80275 7.75861 9.11075 8.18069 9.11075H11.0211L10.703 11.4024H8.18069C7.75861 11.4024 7.41605 11.7104 7.41605 12.0899V20.625H4.86213V12.089C4.86213 11.7095 4.51957 11.4015 4.09748 11.4015H1.52929V9.10983Z" fill="white"/>
</svg>
