<svg width="24" height="21" viewBox="0 0 24 21" fill="none" xmlns="http://www.w3.org/2000/svg">
<path d="M12.0591 5.10767C8.79792 5.10767 6.15771 7.52087 6.15771 10.4958C6.15771 13.4734 8.8008 15.884 12.0591 15.884C15.3203 15.884 17.9606 13.4708 17.9606 10.4958C17.9606 7.51825 15.3175 5.10767 12.0591 5.10767V5.10767ZM12.0591 13.9931C9.94217 13.9931 8.22867 12.4278 8.22867 10.4958C8.22867 8.56386 9.94313 6.99851 12.0591 6.99851C14.1751 6.99851 15.8896 8.56386 15.8896 10.4958C15.8905 12.4278 14.1761 13.9931 12.0591 13.9931V13.9931Z" fill="white"/>
<path d="M16.7972 0.0659622C14.6812 -0.0241613 9.4401 -0.0197863 7.32219 0.0659622C5.4611 0.145586 3.81948 0.555953 2.49602 1.76431C0.284185 3.78377 0.566894 6.50497 0.566894 10.4958C0.566894 14.5802 0.317727 17.2384 2.49602 19.2273C4.71648 21.2537 7.74002 20.9886 12.0592 20.9886C16.4906 20.9886 18.0201 20.9912 19.5869 20.4374C21.7173 19.6822 23.3254 17.9436 23.4826 14.8208C23.5822 12.888 23.5765 8.10357 23.4826 6.16986C23.2928 2.48355 21.126 0.247959 16.7972 0.0659622V0.0659622ZM20.1466 17.8911C18.6966 19.215 16.6851 19.0969 12.0314 19.0969C7.23977 19.0969 5.31831 19.1616 3.91627 17.878C2.30148 16.4107 2.59377 14.0543 2.59377 10.4818C2.59377 5.64749 2.05039 2.16593 7.36435 1.91743C8.58527 1.87806 8.94465 1.86493 12.018 1.86493L12.0611 1.89118C17.1681 1.89118 21.1749 1.40294 21.4154 6.25385C21.4701 7.36071 21.4825 7.6932 21.4825 10.4949C21.4816 14.8191 21.5716 16.5839 20.1466 17.8911V17.8911Z" fill="white"/>
<path d="M18.1945 6.15407C18.9561 6.15407 19.5735 5.59035 19.5735 4.89497C19.5735 4.19958 18.9561 3.63586 18.1945 3.63586C17.4328 3.63586 16.8154 4.19958 16.8154 4.89497C16.8154 5.59035 17.4328 6.15407 18.1945 6.15407Z" fill="white"/>
</svg>
