<svg width="23" height="21" viewBox="0 0 23 21" fill="none" xmlns="http://www.w3.org/2000/svg">
<path d="M11.504 5.10767C8.24275 5.10767 5.60254 7.52087 5.60254 10.4958C5.60254 13.4734 8.24562 15.884 11.504 15.884C14.7652 15.884 17.4054 13.4708 17.4054 10.4958C17.4054 7.51825 14.7623 5.10767 11.504 5.10767ZM11.504 13.9931C9.387 13.9931 7.6735 12.4278 7.6735 10.4958C7.6735 8.56386 9.38796 6.99851 11.504 6.99851C13.62 6.99851 15.3344 8.56386 15.3344 10.4958C15.3354 12.4278 13.6209 13.9931 11.504 13.9931Z" fill="#007AFF"/>
<path d="M16.2421 0.0659622C14.1261 -0.0241613 8.88493 -0.0197863 6.76701 0.0659622C4.90593 0.145586 3.2643 0.555953 1.94084 1.76431C-0.270991 3.78377 0.0117178 6.50497 0.0117178 10.4958C0.0117178 14.5802 -0.237449 17.2384 1.94084 19.2273C4.1613 21.2537 7.18484 20.9886 11.5041 20.9886C15.9354 20.9886 17.4649 20.9912 19.0318 20.4374C21.1621 19.6822 22.7702 17.9436 22.9274 14.8208C23.0271 12.888 23.0213 8.10357 22.9274 6.16986C22.7376 2.48355 20.5708 0.247959 16.2421 0.0659622ZM19.5914 17.8911C18.1415 19.215 16.1299 19.0969 11.4763 19.0969C6.68459 19.0969 4.76314 19.1616 3.36109 17.878C1.7463 16.4107 2.03859 14.0543 2.03859 10.4818C2.03859 5.64749 1.49522 2.16593 6.80918 1.91743C8.0301 1.87806 8.38947 1.86493 11.4628 1.86493L11.506 1.89118C16.6129 1.89118 20.6197 1.40294 20.8603 6.25385C20.9149 7.36071 20.9273 7.6932 20.9273 10.4949C20.9264 14.8191 21.0165 16.5839 19.5914 17.8911Z" fill="#007AFF"/>
<path d="M17.6393 6.15407C18.4009 6.15407 19.0183 5.59035 19.0183 4.89497C19.0183 4.19958 18.4009 3.63586 17.6393 3.63586C16.8777 3.63586 16.2603 4.19958 16.2603 4.89497C16.2603 5.59035 16.8777 6.15407 17.6393 6.15407Z" fill="#007AFF"/>
</svg>
