<svg width="42" height="24" viewBox="0 0 42 24" fill="none" xmlns="http://www.w3.org/2000/svg">
<path d="M3.19565 1H38.7971C40.0072 1 40.9928 1.77917 40.9928 2.73594V12H1V2.73594C1 1.77917 1.98551 1 3.19565 1Z" fill="white"/>
<path d="M1 12H41V21.2641C41 22.2208 40.0145 23 38.8043 23H3.19565C1.98551 23 1 22.2151 1 21.2641V12V12Z" fill="#D52B1E"/>
<path d="M1 8.33325H41V15.6666H1V8.33325Z" fill="#0039A6"/>
<path d="M3.19565 1H38.7971C40.0072 1 40.9928 1.77917 40.9928 2.73594V21.2583C40.9928 22.2151 40.0072 22.9943 38.7971 22.9943H3.19565C1.98551 22.9943 1 22.2094 1 21.2583V2.73594C1 1.77917 1.98551 1 3.19565 1Z" stroke="#CCCCCC" stroke-width="0.1199" stroke-miterlimit="2.6131"/>
</svg>
