<svg width="40" height="22" viewBox="0 0 40 22" fill="none" xmlns="http://www.w3.org/2000/svg">
<path d="M0 0H40V22H0V0Z" fill="#1EB53A"/>
<path d="M0 0H40V11H0V0Z" fill="#0099B5"/>
<path d="M0 7.04004H40V14.96H0V7.04004Z" fill="#CE1126"/>
<path d="M0 7.47998H40V14.52H0V7.47998Z" fill="white"/>
<path d="M5.59995 6.16001C6.92543 6.16001 7.99995 4.97804 7.99995 3.52C7.99995 2.06197 6.92543 0.880005 5.59995 0.880005C4.27447 0.880005 3.19995 2.06197 3.19995 3.52C3.19995 4.97804 4.27447 6.16001 5.59995 6.16001Z" fill="white"/>
<path d="M6.4 6.16001C7.72548 6.16001 8.8 4.97804 8.8 3.52C8.8 2.06197 7.72548 0.880005 6.4 0.880005C5.07452 0.880005 4 2.06197 4 3.52C4 4.97804 5.07452 6.16001 6.4 6.16001Z" fill="#0099B5"/>
<path d="M10.8801 5.104L10.7318 5.60616L10.9601 5.68774" fill="white"/>
</svg>
